<?xml version="1.0" encoding="UTF-8" standalone="no"?>
<!-- Created with Inkscape (http://www.inkscape.org/) -->

<svg
   width="512mm"
   height="512mm"
   viewBox="0 0 512 512"
   version="1.1"
   id="svg5"
   xmlns="http://www.w3.org/2000/svg"
   xmlns:svg="http://www.w3.org/2000/svg">
  <defs
     id="defs2" />
  <g
     id="layer1">
    <rect
       style="opacity:1;fill:#ffffff;stroke-width:0.221247"
       id="rect379"
       width="580.33496"
       height="358.43338"
       x="-98.907585"
       y="313.68738"
       transform="rotate(-8.8991293)" />
    <rect
       style="fill:#000000;stroke-width:0.228395"
       id="rect379-1"
       width="617.44208"
       height="359.01279"
       x="-98.34742"
       y="-42.731258"
       transform="matrix(0.98937318,-0.14539846,0.16455579,0.98636778,0,0)" />
    <g
       aria-label="C"
       transform="matrix(1.2017228,0,0,0.83213866,0,-7.9375003)"
       id="text113"
       style="font-size:760.629px;stroke-width:0.557101">
      <path
         d="m 123.00899,584.19232 q -21.29761,0 -38.03145,-15.97321 Q 68.243701,552.2459 68.243701,529.42703 V 106.51729 q 0,-22.05824 16.733839,-38.031449 16.73384,-16.733839 38.03145,-16.733839 h 172.66279 q 23.5795,0 38.79208,16.733839 15.97321,15.973209 15.97321,38.031449 v 98.88178 l -70.7385,15.97321 v -71.49913 q 0,-10.64881 -7.60629,-19.01573 -6.84566,-8.36692 -19.01572,-8.36692 h -86.71171 q -10.64881,0 -19.01573,8.36692 -8.36692,8.36692 -8.36692,19.01573 v 336.19803 q 0,12.17006 8.36692,19.77635 8.36692,7.60629 19.01573,7.60629 h 86.71171 q 12.17006,0 19.01572,-7.60629 7.60629,-7.60629 7.60629,-19.77635 v -55.52592 l 70.7385,-16.73384 v 115.61561 q 0,22.81887 -15.97321,38.79208 -15.21258,15.97321 -38.79208,15.97321 z"
         style="font-family:'Odibee Sans';-inkscape-font-specification:'Odibee Sans'"
         id="path277" />
    </g>
    <g
       aria-label="C"
       transform="matrix(1.2017228,0,0,0.83213867,0,-4.7625)"
       id="g435"
       style="font-size:760.629px;stroke-width:0.557101">
      <path
         id="path433"
         style="font-family:'Odibee Sans';-inkscape-font-specification:'Odibee Sans';fill:#ffffff"
         d="m 123.00882,51.752278 c -14.19808,0 -26.875821,5.578127 -38.031363,16.733667 C 73.821948,79.134399 68.243676,91.812142 68.243676,106.51706 v 266.74506 c 0.912371,-0.21059 1.825992,-0.41181 2.737074,-0.63342 1.8647,-0.41599 3.722993,-0.88885 5.580794,-1.36374 1.702077,-0.42549 3.393643,-0.92808 5.089712,-1.39913 2.276845,-0.70966 4.576026,-1.26421 6.869993,-1.84439 2.270312,-0.56975 4.551813,-1.03631 6.82527,-1.57798 3.793357,-0.89586 7.598161,-1.68359 11.407131,-2.42752 4.26678,-0.79713 8.53167,-1.62298 12.79136,-2.49893 4.02541,-0.81828 8.04027,-1.73619 12.0642,-2.57035 2.45588,-0.47645 4.91326,-0.93704 7.37312,-1.36746 V 149.87332 c 0,-7.09889 2.78895,-13.43824 8.36689,-19.01587 5.57763,-5.57763 11.91657,-8.36683 19.01546,-8.36683 h 86.71173 c 8.11305,0 14.45243,2.7892 19.01589,8.36683 5.07086,5.57763 7.60619,11.91698 7.60619,19.01587 v 71.49907 l 70.73865,-15.97355 v -98.88178 c 0,-14.704918 -5.32459,-27.382661 -15.97308,-38.031115 C 324.32266,57.330405 311.3906,51.752278 295.67157,51.752278 Z M 95.557659,369.44852 c -0.227972,0.0533 -0.456122,0.10499 -0.684161,0.15773 0.01203,-10e-4 0.0241,-0.002 0.03612,-0.004 0.151983,-0.0194 0.30389,-0.0385 0.45582,-0.0571 0.06403,-0.0325 0.128111,-0.0647 0.192219,-0.0969 z M 68.243246,380.9384 v 0.1006 c 0.08752,-0.0308 0.175182,-0.0607 0.262742,-0.0913 h -0.06751 c -0.06722,0 -0.131105,-0.005 -0.195229,-0.009 z" />
    </g>
  </g>
</svg>
